<svg width="47" height="43" viewBox="0 0 47 43" fill="none" xmlns="http://www.w3.org/2000/svg">
<path fill-rule="evenodd" clip-rule="evenodd" d="M5.9637 36.1564L0.909939 28.0497C-0.00369322 26.5834 -0.340011 25.4292 0.419851 23.7354L3.39096 19.0768L0.414456 17.5828L10.3916 17.5458L15.3698 25.6651L12.2989 24.0182L7.31256 32.2684C6.84046 33.0516 6.44839 33.645 6.20379 34.5364C6.05722 35.0744 5.98618 35.6142 5.9637 36.1564ZM7.96631 11.0927L12.7692 3.29078C14.1198 1.72032 15.8023 1.15374 17.4021 1.57678C18.7815 1.94107 19.1637 2.5194 19.8975 3.56693C20.7725 4.81508 21.5395 6.148 22.3371 7.45658L16.9669 16.0702L7.96631 11.0927ZM18.8957 0.431881L28.9439 0.399985C30.7604 0.394109 31.9995 0.699641 33.1919 2.16099L36.0281 6.89169L38.9021 5.23225L33.9482 13.3162L23.9261 13.281L26.9889 11.6224L21.8273 3.46621C21.3381 2.69231 20.9838 2.07873 20.2779 1.43577C19.8525 1.04882 19.3867 0.721464 18.8957 0.431881ZM40.7762 14.9622L45.6123 22.7457C46.3946 24.6234 46.079 26.2669 44.8866 27.3489C43.8588 28.2806 43.1313 28.3007 41.7923 28.3704C40.197 28.4535 38.5766 28.4073 36.9643 28.3981L31.6578 19.75L40.7762 14.9622ZM45.2022 29.1283L40.2078 37.266C39.3041 38.7375 38.4022 39.5869 36.4499 39.8194L30.6426 39.7472L30.7451 42.8999L25.7219 34.8537L30.7658 26.7697L30.773 30.0751L40.9209 29.9811C41.8831 29.9719 42.6304 29.992 43.5791 29.7436C44.1519 29.5933 44.6879 29.3801 45.2022 29.1283ZM21.3192 39.6608L11.6793 39.6792C9.54629 39.3729 8.18033 38.2951 7.77208 36.791C7.42137 35.4941 7.76668 34.8956 8.37097 33.7784C9.09217 32.4472 9.94465 31.1604 10.7603 29.8619L21.437 29.8964L21.3192 39.6608Z" fill="white"/>
</svg>
